# xmcd
#
# Track frame offsets:
#	150
#	10182
#	22286
#	33229
#	45353
#	58069
#	69380
#	79960
#	93218
#	105242
#	115129
#	127659
#	138547
#	149161
#	159955
#	171848
#	183474
#	194636
#	203766
#	213735
#	225877
#	236876
#	248018
#	260459
#
# Disc length: 3639 seconds
#
# Revision: 0
# Processed by: cddbd v1.5.2PL0 Copyright (c) Steve Scherf et al.
# Submitted via: audiograbber 1.83.01
#
DISCID=4d0e3518
DTITLE=George Jones and Gene Pitney - It's Country Time Again
DYEAR=1966
DGENRE=Country
TTITLE0=I've Got Five Dollars And It's Saturday Night
TTITLE1=I Really Don't Want To Know (Gene Pitney Solo)
TTITLE2=I'm A Fool To Care
TTITLE3=My Shoes Keep Walking Back To You
TTITLE4=Sweeter Than The Flowers
TTITLE5=Wearing My Heart Away
TTITLE6=One Has My Name
TTITLE7=Things Have Gone To Pieces (George Jones Solo)
TTITLE8=I've Got A New Heartache
TTITLE9=Don't Rob Another Man's Castle
TTITLE10=Wreck On The Highway
TTITLE11=Born To Lose (Gene Pitney Solo)
TTITLE12=Mockin' Bird Hill
TTITLE13=As Long As I Live
TTITLE14=My Favorite Lies (George Jones Solo)
TTITLE15=Y'All Come
TTITLE16=Some Day (You'll Want Me To Want You)
TTITLE17=Love Bug (George Jones Solo)
TTITLE18=Big Job
TTITLE19=Your Old Standby
TTITLE20=Why Baby Why
TTITLE21=That's All It Took
TTITLE22=Louisiana Man
TTITLE23=I Can't Stop Loving You (Gene Pitney Solo)
EXTD=
EXTT0=
EXTT1=
EXTT2=
EXTT3=
EXTT4=
EXTT5=
EXTT6=
EXTT7=
EXTT8=
EXTT9=
EXTT10=
EXTT11=
EXTT12=
EXTT13=
EXTT14=
EXTT15=
EXTT16=
EXTT17=
EXTT18=
EXTT19=
EXTT20=
EXTT21=
EXTT22=
EXTT23=
PLAYORDER=
